#!OML:ASF G:\JayActor3\Patient Classification 1\Patient 1\Session 2\male.ASF
:FULLY-SPECIFIED
:DEGREES
2500
root 48.9538 16.6149 -8.1885 2339.9 122.993 896.672
lowerback 1.56734 -0.0427703 -2.99191
upperback 3.97695 -0.00746774 0.173421
thorax 3.21441 -0.0810155 1.85529
lowerneck -10.4626 -6.51266 -5.90198
upperneck 10.2274 -10.0135 17.0498
head 6.03346 -3.94779 5.51333
rclavicle 1.40143e-014 -1.98785e-015
rhumerus -31.524 1.75791 -85.7065
rradius 37.0335
rwrist -8.9045
rhand -24.1281 1.36512
rfingers 7.12502
rthumb 2.35366 -28.6016
lclavicle 1.40143e-014 -1.98785e-015
lhumerus -21.8649 -3.54015 86.5313
lradius 26.9802
lwrist 15.6716
lhand -22.5472 17.1344
lfingers 7.12502
lthumb 3.88034 47.0788
rfemur -20.4274 8.61488 20.3668
rtibia 39.2911
rfoot -26.2495 -1.38989
rtoes -1.8357
lfemur -15.9566 8.76301 -20.3664
ltibia 29.9779
lfoot -14.4493 4.27461
ltoes -4.66618
2501
root 48.9516 16.617 -8.21438 2340.11 124.381 896.749
lowerback 1.65436 -0.0880627 -3.11457
upperback 3.97753 -0.0714054 0.186859
thorax 3.17032 -0.116534 1.93715
lowerneck -10.5395 -6.66362 -6.00536
upperneck 10.6804 -10.2944 17.1823
head 6.2359 -4.05375 5.54613
rclavicle -2.79292e-014 3.57812e-015
rhumerus -31.4456 2.04066 -85.7624
rradius 37.5007
rwrist -9.25091
rhand -24.2612 1.32904
rfingers 7.12502
rthumb 2.22512 -28.6391
lclavicle -2.79292e-014 3.57812e-015
lhumerus -21.7831 -3.67631 86.4373
lradius 26.756
lwrist 15.5737
lhand -22.5016 17.0898
lfingers 7.12502
lthumb 3.92439 47.0334
rfemur -20.7821 7.90457 20.3367
rtibia 39.6318
rfoot -26.7471 -3.08309
rtoes -0.415226
lfemur -15.9592 8.97136 -20.447
ltibia 29.9125
lfoot -14.6468 5.40947
ltoes -4.74801
2502
root 48.9501 16.6203 -8.24063 2340.33 125.807 896.83
lowerback 1.72809 -0.121655 -3.23141
upperback 3.9879 -0.118998 0.19134
thorax 3.1432 -0.143864 2.00681
lowerneck -10.6018 -6.80963 -6.10633
upperneck 11.1058 -10.5689 17.3315
head 6.42892 -4.15686 5.58469
rclavicle -8.32908e-014 -1.11319e-014
rhumerus -31.3836 2.33749 -85.83
rradius 37.9889
rwrist -9.59938
rhand -24.4141 1.29512
rfingers 7.12502
rthumb 2.07739 -28.6745
lclavicle -8.32908e-014 -1.11319e-014
lhumerus -21.6734 -3.85456 86.3405
lradius 26.4883
lwrist 15.5086
lhand -22.4852 17.026
lfingers 7.12502
lthumb 3.94023 46.9693
rfemur -21.1365 7.10141 20.3152
rtibia 40.0072
rfoot -27.2177 -4.60878
rtoes 1.20758
lfemur -15.9349 9.15518 -20.538
ltibia 29.8173
lfoot -14.851 6.59297
ltoes -4.77791
2503
root 48.95 16.6244 -8.26677 2340.54 127.272 896.92
lowerback 1.78421 -0.143117 -3.34166
upperback 4.00868 -0.149389 0.18477
thorax 3.13585 -0.162619 2.0616
lowerneck -10.6342 -6.95665 -6.22241
upperneck 11.4891 -10.8434 17.5142
head 6.60808 -4.26136 5.63715
rclavicle -1.07344e-014 -9.54166e-015
rhumerus -31.3501 2.64298 -85.9119
rradius 38.5045
rwrist -9.94215
rhand -24.5937 1.24443
rfingers 7.12502
rthumb 1.90399 -28.7268
lclavicle -1.07344e-014 -9.54166e-015
lhumerus -21.5432 -4.05098 86.2331
lradius 26.188
lwrist 15.4576
lhand -22.4693 16.9614
lfingers 7.12502
lthumb 3.95556 46.9045
rfemur -21.4729 6.23511 20.2963
rtibia 40.4039
rfoot -27.6656 -5.86825
rtoes 3.1539
lfemur -15.8731 9.32706 -20.6398
ltibia 29.693
lfoot -15.0719 7.80754
ltoes -4.72598
2504
root 48.9519 16.6288 -8.29254 2340.73 128.769 897.008
lowerback 1.82288 -0.156004 -3.44015
upperback 4.04168 -0.167276 0.170443
thorax 3.15025 -0.175135 2.1019
lowerneck -10.6697 -7.10765 -6.32706
upperneck 11.8542 -11.1239 17.6924
head 6.78357 -4.36885 5.68508
rclavicle 3.53837e-014 9.14409e-015
rhumerus -31.3285 2.95268 -86.0007
rradius 39.0175
rwrist -10.2724
rhand -24.7865 1.19897
rfingers 7.12502
rthumb 1.71782 -28.7739
lclavicle 3.53837e-014 9.14409e-015
lhumerus -21.3988 -4.26247 86.1166
lradius 25.8715
lwrist 15.4079
lhand -22.4416 16.9094
lfingers 7.12502
lthumb 3.98233 46.8519
rfemur -21.7914 5.30761 20.2897
rtibia 40.8056
rfoot -28.0571 -6.97207
rtoes 5.05561
lfemur -15.7743 9.49335 -20.7458
ltibia 29.5482
lfoot -15.3154 9.03427
ltoes -4.58851
2505
root 48.9555 16.6331 -8.31776 2340.9 130.282 897.086
lowerback 1.85957 -0.165159 -3.52453
upperback 4.08726 -0.179652 0.151023
thorax 3.17841 -0.184753 2.12907
lowerneck -10.7045 -7.2579 -6.40496
upperneck 12.1964 -11.4028 17.8489
head 6.95014 -4.4767 5.72095
rclavicle 1.37161e-014 8.74653e-015
rhumerus -31.3113 3.25042 -86.091
rradius 39.5122
rwrist -10.5649
rhand -24.9705 1.16394
rfingers 7.12502
rthumb 1.54008 -28.8102
lclavicle 1.37161e-014 8.74653e-015
lhumerus -21.2438 -4.46472 85.988
lradius 25.5398
lwrist 15.3286
lhand -22.4033 16.8637
lfingers 7.12502
lthumb 4.01935 46.8056
rfemur -22.0772 4.33844 20.2991
rtibia 41.2051
rfoot -28.38 -7.9477
rtoes 6.92875
lfemur -15.6373 9.6464 -20.8472
ltibia 29.3959
lfoot -15.5905 10.2655
ltoes -4.37226
2506
root 48.9609 16.6366 -8.34271 2341.04 131.835 897.159
lowerback 1.89137 -0.165827 -3.6024
upperback 4.13902 -0.180329 0.128673
thorax 3.21496 -0.188546 2.14966
lowerneck -10.738 -7.40401 -6.44269
upperneck 12.5143 -11.6738 17.9643
head 7.10381 -4.58293 5.73654
rclavicle -5.06901e-015 3.57812e-015
rhumerus -31.2901 3.54343 -86.1791
rradius 39.9749
rwrist -10.8253
rhand -25.1352 1.1278
rfingers 7.12502
rthumb 1.38097 -28.8475
lclavicle -5.06901e-015 3.57812e-015
lhumerus -21.084 -4.65394 85.85
lradius 25.1925
lwrist 15.2226
lhand -22.3569 16.8236
lfingers 7.12502
lthumb 4.06415 46.7645
rfemur -22.3537 3.34225 20.3188
rtibia 41.5987
rfoot -28.5827 -8.90265
rtoes 8.51304
lfemur -15.4799 9.78312 -20.9516
ltibia 29.2501
lfoot -15.9104 11.5234
ltoes -4.06526
2507
root 48.9674 16.6392 -8.3672 2341.16 133.43 897.218
lowerback 1.9257 -0.154793 -3.67013
upperback 4.19705 -0.165348 0.105575
thorax 3.25553 -0.184384 2.16393
lowerneck -10.7669 -7.54443 -6.43571
upperneck 12.8067 -11.9357 18.0433
head 7.24303 -4.68654 5.73279
rclavicle 2.39536e-014 2.38542e-015
rhumerus -31.2821 3.86651 -86.2702
rradius 40.436
rwrist -11.0949
rhand -25.2776 1.08801
rfingers 7.12502
rthumb 1.24348 -28.8881
lclavicle 2.39536e-014 2.38542e-015
lhumerus -20.9271 -4.89156 85.7128
lradius 24.8435
lwrist 15.145
lhand -22.3217 16.7897
lfingers 7.12502
lthumb 4.09809 46.7301
rfemur -22.621 2.35105 20.3564
rtibia 41.9945
rfoot -28.6851 -9.88651
rtoes 9.84268
lfemur -15.3045 9.8899 -21.0488
ltibia 29.1162
lfoot -16.2878 12.8174
ltoes -3.64617
2508
root 48.9746 16.6409 -8.39133 2341.25 135.053 897.26
lowerback 1.96134 -0.141401 -3.7296
upperback 4.26101 -0.147242 0.0856859
thorax 3.30126 -0.17868 2.17689
lowerneck -10.7993 -7.65479 -6.43516
upperneck 13.1065 -12.156 18.1173
head 7.38036 -4.77016 5.73348
rclavicle 7.53394e-014 -1.07344e-014
rhumerus -31.2516 4.1721 -86.3524
rradius 40.8364
rwrist -11.3158
rhand -25.3953 1.08422
rfingers 7.12502
rthumb 1.12982 -28.8925
lclavicle 7.53394e-014 -1.07344e-014
lhumerus -20.7803 -5.14824 85.5751
lradius 24.4993
lwrist 15.0785
lhand -22.3054 16.7666
lfingers 7.12502
lthumb 4.11387 46.7066
rfemur -22.8819 1.3802 20.4117
rtibia 42.3983
rfoot -28.7236 -10.9247
rtoes 10.9748
lfemur -15.1175 9.96796 -21.1367
ltibia 28.9953
lfoot -16.7228 14.1359
ltoes -3.1353
2509
root 48.9822 16.6421 -8.41479 2341.32 136.685 897.295
lowerback 1.99935 -0.130321 -3.78651
upperback 4.32466 -0.132459 0.0680427
thorax 3.34556 -0.17464 2.1907
lowerneck -10.8281 -7.7455 -6.45361
upperneck 13.4134 -12.3488 18.1957
head 7.51776 -4.84092 5.74257
rclavicle -5.63555e-014 1.27222e-014
rhumerus -31.2192 4.46847 -86.4234
rradius 41.189
rwrist -11.4768
rhand -25.4835 1.14535
rfingers 7.12502
rthumb 1.04464 -28.8318
lclavicle -5.63555e-014 1.27222e-014
lhumerus -20.6509 -5.41878 85.4363
lradius 24.1644
lwrist 15.0256
lhand -22.2877 16.7587
lfingers 7.12502
lthumb 4.13093 46.6984
rfemur -23.133 0.434394 20.4708
rtibia 42.818
rfoot -28.7918 -11.9393
rtoes 12.186
lfemur -14.9235 10.0288 -21.2215
ltibia 28.8795
lfoot -17.2185 15.4495
ltoes -2.55669
2510
root 48.9901 16.6432 -8.4375 2341.39 138.316 897.327
lowerback 2.04088 -0.122679 -3.85428
upperback 4.38521 -0.122897 0.0619446
thorax 3.38517 -0.173744 2.22247
lowerneck -10.8501 -7.8172 -6.53784
upperneck 13.7303 -12.5126 18.3068
head 7.66052 -4.89861 5.77817
rclavicle -6.36111e-015 2.22639e-014
rhumerus -31.176 4.74374 -86.4647
rradius 41.4817
rwrist -11.561
rhand -25.5314 1.2517
rfingers 7.12502
rthumb 0.998298 -28.7257
lclavicle -6.36111e-015 2.22639e-014
lhumerus -20.5388 -5.6772 85.3118
lradius 23.8332
lwrist 14.956
lhand -22.3 16.7636
lfingers 7.12502
lthumb 4.11907 46.7035
rfemur -23.3755 -0.50447 20.5294
rtibia 43.2506
rfoot -28.9258 -12.9213
rtoes 13.4475
lfemur -14.726 10.0912 -21.3058
ltibia 28.7665
lfoot -17.7676 16.7346
ltoes -1.93952
2511
root 48.998 16.6445 -8.45939 2341.45 139.941 897.362
lowerback 2.09009 -0.118448 -3.9277
upperback 4.4398 -0.118641 0.0610595
thorax 3.4147 -0.175614 2.26274
lowerneck -10.8566 -7.87422 -6.69826
upperneck 14.0531 -12.6534 18.4613
head 7.8083 -4.94662 5.84559
rclavicle 4.85035e-014 -2.06736e-014
rhumerus -31.1306 4.97913 -86.4814
rradius 41.7148
rwrist -11.5676
rhand -25.5416 1.40213
rfingers 7.12502
rthumb 0.988511 -28.5753
lclavicle 4.85035e-014 -2.06736e-014
lhumerus -20.4393 -5.86047 85.1847
lradius 23.4984
lwrist 14.8187
lhand -22.3156 16.7769
lfingers 7.12502
lthumb 4.10397 46.7171
rfemur -23.6076 -1.442 20.5804
rtibia 43.691
rfoot -29.168 -13.8319
rtoes 14.8228
lfemur -14.5225 10.1638 -21.3915
ltibia 28.6518
lfoot -18.368 17.9722
ltoes -1.2784
2512
root 49.0034 16.6458 -8.48172 2341.53 141.497 897.395
lowerback 2.15987 -0.137501 -4.02243
upperback 4.47241 -0.147485 0.0718204
thorax 3.41236 -0.194151 2.32676
lowerneck -10.854 -7.92461 -6.90681
upperneck 14.3723 -12.7811 18.6339
head 7.95697 -4.99058 5.93002
rclavicle 1.39447e-013 -5.56597e-015
rhumerus -31.0792 5.18273 -86.4749
rradius 41.8902
rwrist -11.5141
rhand -25.523 1.56372
rfingers 7.12502
rthumb 1.00646 -28.4136
lclavicle 1.39447e-013 -5.56597e-015
lhumerus -20.3475 -5.95772 85.0535
lradius 23.1548
lwrist 14.6085
lhand -22.3409 16.7924
lfingers 7.12502
lthumb 4.0796 46.7331
rfemur -23.8664 -2.37583 20.6409
rtibia 44.1253
rfoot -29.5121 -14.8151
rtoes 16.0255
lfemur -14.3696 10.2925 -21.4747
ltibia 28.5392
lfoot -18.9556 19.0747
ltoes -0.635964
2513
root 49.0068 16.6474 -8.50433 2341.63 143.001 897.428
lowerback 2.25355 -0.169156 -4.13233
upperback 4.48601 -0.195169 0.0885211
thorax 3.37843 -0.221884 2.40541
lowerneck -10.8588 -7.97629 -7.12063
upperneck 14.6911 -12.9094 18.7986
head 8.10788 -5.03561 6.01295
rclavicle -2.60408e-014 1.27222e-014
rhumerus -31.0326 5.35659 -86.4541
rradius 42.0268
rwrist -11.4322
rhand -25.484 1.72308
rfingers 7.12502
rthumb 1.04412 -28.2541
lclavicle -2.60408e-014 1.27222e-014
lhumerus -20.2625 -5.98911 84.9158
lradius 22.8079
lwrist 14.3316
lhand -22.3737 16.8074
lfingers 7.12502
lthumb 4.04794 46.7487
rfemur -24.1457 -3.30253 20.7126
rtibia 44.5405
rfoot -29.9478 -15.8528
rtoes 17.0825
lfemur -14.2541 10.442 -21.555
ltibia 28.4287
lfoot -19.5479 20.0836
ltoes 0.0186939
